<svg xmlns="http://www.w3.org/2000/svg" width="19.922" height="18.894" viewBox="0 0 19.922 18.894"><defs><style>.a{fill:#c97b29;}</style></defs><g transform="translate(0 -1.358)"><g transform="translate(0 12.509)"><path class="a" d="M18.365,313.42v4.63a.778.778,0,0,1-.778.778H2.335a.778.778,0,0,1-.778-.778v-4.63a.778.778,0,0,0-.778-.778h0A.778.778,0,0,0,0,313.42v4.63a2.335,2.335,0,0,0,2.335,2.335H17.587a2.335,2.335,0,0,0,2.335-2.335v-4.63a.778.778,0,0,0-.778-.778h0A.778.778,0,0,0,18.365,313.42Z" transform="translate(0 -312.642)"/></g><g transform="translate(5.447 1.358)"><path class="a" d="M144.514.358l-4.286,4.286a.778.778,0,0,0,0,1.1h0a.778.778,0,0,0,1.1,0l2.407-2.407v11.35a.778.778,0,0,0,.778.778h0a.778.778,0,0,0,.778-.778V3.337L147.7,5.744a.778.778,0,0,0,1.1,0h0a.778.778,0,0,0,0-1.1Z" transform="translate(-140.001 -0.358)"/></g></g></svg>