<svg xmlns="http://www.w3.org/2000/svg" width="24" height="24" viewBox="0 0 24 24"><defs><style>.a{fill:#c97b29;}</style></defs><path class="a" d="M21.891,2.813h-.7v-.7a2.109,2.109,0,0,0-4.219,0v.7H14.156v-.7a2.109,2.109,0,0,0-4.219,0v.7H7.031v-.7a2.109,2.109,0,0,0-4.219,0v.7h-.7A2.112,2.112,0,0,0,0,4.922V21.891A2.112,2.112,0,0,0,2.109,24H21.891A2.112,2.112,0,0,0,24,21.891V4.922A2.112,2.112,0,0,0,21.891,2.813Zm-3.516-.7a.7.7,0,0,1,1.406,0V4.922a.7.7,0,0,1-1.406,0Zm-7.031,0a.7.7,0,0,1,1.406,0V4.922a.7.7,0,0,1-1.406,0Zm-7.125,0a.7.7,0,0,1,1.406,0V4.922a.7.7,0,0,1-1.406,0ZM22.594,21.891a.7.7,0,0,1-.7.7H2.109a.7.7,0,0,1-.7-.7V9.938H22.594Zm0-13.359H1.406V4.922a.7.7,0,0,1,.7-.7h.7v.7a2.109,2.109,0,0,0,4.219,0v-.7H9.938v.7a2.109,2.109,0,0,0,4.219,0v-.7h2.813v.7a2.109,2.109,0,0,0,4.219,0v-.7h.7a.7.7,0,0,1,.7.7Z"/><g transform="translate(2.813 11.344)"><path class="a" d="M77.672,242H60.7a.7.7,0,0,0-.7.7v8.437a.7.7,0,0,0,.7.7H77.672a.7.7,0,0,0,.7-.7V242.7A.7.7,0,0,0,77.672,242Zm-13.453,8.438H61.406v-2.812h2.813Zm0-4.219H61.406v-2.812h2.813Zm4.313,4.219H65.625v-2.812h2.906Zm0-4.219H65.625v-2.812h2.906Zm4.219,4.219H69.938v-2.812H72.75Zm0-4.219H69.938v-2.812H72.75Zm4.219,4.219H74.156v-2.812h2.812Zm0-4.219H74.156v-2.812h2.812Z" transform="translate(-60 -242)"/></g></svg>