<svg xmlns="http://www.w3.org/2000/svg" width="22.5" height="22.5" viewBox="0 0 22.5 22.5"><defs><style>.a{fill:#172b4d;stroke:#172b4d;stroke-width:0.5px;}</style></defs><path class="a" d="M19.63,0H2.371A2.373,2.373,0,0,0,0,2.371V15.014a2.373,2.373,0,0,0,2.371,2.37H7.84l1.811,3.623A1.567,1.567,0,0,0,11,22a1.567,1.567,0,0,0,1.348-.993l1.812-3.623h5.47A2.373,2.373,0,0,0,22,15.014V2.371A2.373,2.373,0,0,0,19.63,0Zm1.081,15.014a1.083,1.083,0,0,1-1.081,1.081H13.762a.645.645,0,0,0-.577.356L11.2,20.43a.784.784,0,0,1-.2.27.784.784,0,0,1-.2-.27l-1.99-3.979a.644.644,0,0,0-.576-.356H2.371a1.083,1.083,0,0,1-1.081-1.081V2.371A1.083,1.083,0,0,1,2.371,1.289H19.63a1.083,1.083,0,0,1,1.081,1.081Z" transform="translate(0.25 0.25)"/></svg>