<svg xmlns="http://www.w3.org/2000/svg" width="16.96" height="20.741" viewBox="0 0 16.96 20.741"><defs><style>.a{fill:#c97b29;stroke:#c97b29;stroke-width:0.5px;}</style></defs><g transform="translate(-39.737 0.251)"><path class="a" d="M262.873,154.7a.474.474,0,0,0-.474.474v8.959a.474.474,0,0,0,.948,0v-8.959A.474.474,0,0,0,262.873,154.7Z" transform="translate(-211.859 -147.371)"/><path class="a" d="M144.873,154.7a.474.474,0,0,0-.474.474v8.959a.474.474,0,0,0,.948,0v-8.959A.474.474,0,0,0,144.873,154.7Z" transform="translate(-99.453 -147.371)"/><path class="a" d="M41.344,6.025V17.7a2.615,2.615,0,0,0,.7,1.8,2.334,2.334,0,0,0,1.694.732H52.7a2.334,2.334,0,0,0,1.694-.732,2.615,2.615,0,0,0,.7-1.8V6.025a1.811,1.811,0,0,0-.465-3.561H52.2V1.871A1.862,1.862,0,0,0,50.322,0H46.113a1.862,1.862,0,0,0-1.877,1.872v.593H41.808a1.811,1.811,0,0,0-.465,3.561ZM52.7,19.292H43.733A1.5,1.5,0,0,1,42.292,17.7V6.066H54.142V17.7A1.5,1.5,0,0,1,52.7,19.292ZM45.183,1.871a.913.913,0,0,1,.929-.924h4.209a.913.913,0,0,1,.929.924v.593H45.183ZM41.808,3.412H54.626a.853.853,0,0,1,0,1.706H41.808a.853.853,0,1,1,0-1.706Z"/><path class="a" d="M203.873,154.7a.474.474,0,0,0-.474.474v8.959a.474.474,0,0,0,.948,0v-8.959A.474.474,0,0,0,203.873,154.7Z" transform="translate(-155.656 -147.371)"/></g></svg>