<svg xmlns="http://www.w3.org/2000/svg" width="16.007" height="21.054" viewBox="0 0 16.007 21.054">
  <g id="Group_248" data-name="Group 248" transform="translate(-2444.75 1760.75)">
    <g id="Group_247" data-name="Group 247" transform="translate(403.545 -2181.469)">
      <path id="Path_502" data-name="Path 502" d="M2056.951,426.329a.9.9,0,0,0-.216-.573q-2.19-2.3-4.416-4.555a.818.818,0,0,0-.525-.22q-4.1-.02-8.2,0a2.115,2.115,0,0,0-2.122,2.025c-.03.475-.01,10.453-.015,10.93a3.835,3.835,0,0,1,.888.122c-.007-.565-.03-10.6.013-11.13a1.176,1.176,0,0,1,1.125-1.073c2.66-.02,5.32-.009,8.038-.009v1.219c0,.691,0,1.382,0,2.072a1.305,1.305,0,0,0,1.473,1.454c.878,0,1.756,0,2.634,0,.14,0,.281.012.47.02v2.212q0,5.138,0,10.276c0,1.1-.468,1.569-1.578,1.569h-10.75a1.268,1.268,0,0,1-1.432-1.23c-.024-2.062-.012-4.125-.01-6.24-.107.009-.214.015-.32.015a3.849,3.849,0,0,1-.55-.04c0,2.044-.01,4.088.006,6.132a2.131,2.131,0,0,0,2.191,2.225q5.568.011,11.135,0a2.119,2.119,0,0,0,2.167-2.159Q2056.97,432.847,2056.951,426.329Zm-2.78-.608h-1.293c-.287,0-.484-.132-.488-.428-.012-.9,0-1.8,0-2.817l3.139,3.245Z" transform="translate(0 0)" fill="#c97b29" stroke="#c97b29" stroke-width="0.5"/>
      <path id="Path_504" data-name="Path 504" d="M2072.907,583.9c1.387,0,2.774,0,4.161,0,.276,0,.533.043.538.371s-.245.385-.525.385q-4.217,0-8.434,0c-.279,0-.526-.061-.519-.391.006-.306.242-.364.507-.364Q2070.771,583.9,2072.907,583.9Z" transform="translate(-23.651 -146.269)" fill="#c97b29" stroke="#c97b29" stroke-width="0.5"/>
      <path id="Path_505" data-name="Path 505" d="M2072.907,547.469c1.387,0,2.774,0,4.161,0,.276,0,.533.043.538.371s-.245.385-.525.385q-4.217,0-8.434,0c-.279,0-.526-.061-.519-.391.006-.306.242-.364.507-.363Q2070.771,547.473,2072.907,547.469Z" transform="translate(-23.651 -112.573)" fill="#c97b29" stroke="#c97b29" stroke-width="0.5"/>
      <path id="Path_506" data-name="Path 506" d="M2072.907,511.04c1.387,0,2.774,0,4.161,0,.276,0,.533.043.538.371s-.245.385-.525.385q-4.217,0-8.434,0c-.279,0-.526-.061-.519-.391.006-.306.242-.364.507-.364C2070.059,511.042,2071.483,511.04,2072.907,511.04Z" transform="translate(-23.651 -78.875)" fill="#c97b29" stroke="#c97b29" stroke-width="0.5"/>
      <path id="Path_507" data-name="Path 507" d="M2070.4,469.492c.612,0,1.224,0,1.835,0,.272,0,.491.083.483.388-.007.279-.217.364-.473.363q-1.816,0-3.634,0c-.263,0-.5-.06-.5-.371s.222-.381.49-.38C2069.205,469.494,2069.8,469.492,2070.4,469.492Z" transform="translate(-23.64 -40.444)" fill="#c97b29" stroke="#c97b29" stroke-width="0.5"/>
    </g>
  </g>
</svg>
