<svg xmlns="http://www.w3.org/2000/svg" width="19.822" height="19.782" viewBox="0 0 19.822 19.782"><defs><style>.a{fill:#c97b29;stroke:#c97b29;stroke-width:0.5px;}</style></defs><g transform="translate(-1440.464 323.107)"><path class="a" d="M1440.714-291.212c.038-.183.063-.369.115-.547a2.718,2.718,0,0,1,2.39-1.96c.085-.007.17-.013.256-.013h6.634a.629.629,0,0,1,.65.454.619.619,0,0,1-.552.788c-.052,0-.105,0-.158,0h-6.555a1.484,1.484,0,0,0-1.507,1.228,1.621,1.621,0,0,0-.027.313q0,6.565,0,13.13a1.5,1.5,0,0,0,1.263,1.519,1.651,1.651,0,0,0,.275.016q6.88,0,13.761,0a1.52,1.52,0,0,0,1.533-1.536q0-3.105,0-6.21a.627.627,0,0,1,.437-.642.625.625,0,0,1,.785.427c.006.022.015.042.023.064v6.6c-.006.031-.015.063-.018.094a2.744,2.744,0,0,1-2.09,2.367c-.175.039-.355.055-.533.082h-14.038l-.214-.024a2.735,2.735,0,0,1-2.329-2.01c-.043-.16-.066-.326-.1-.49Z" transform="translate(0 -28.55)"/><path class="a" d="M1648.138-322.857a.909.909,0,0,1,.563.328c.716.724,1.438,1.442,2.158,2.163a.63.63,0,0,1,0,.984q-5.237,5.238-10.478,10.472a.952.952,0,0,1-.353.221c-1.136.386-2.278.758-3.414,1.144a.622.622,0,0,1-.844-.437.742.742,0,0,1,.021-.357q.57-1.744,1.159-3.481a.82.82,0,0,1,.194-.3q5.25-5.259,10.506-10.514a.792.792,0,0,1,.449-.221Zm-10.781,13.748.076-.023c.685-.228,1.37-.455,2.053-.686a.393.393,0,0,0,.144-.1q3.7-3.7,7.4-7.395c.069-.069.145-.133.207-.191l-1.476-1.476c-.013.012-.035.031-.055.052q-3.777,3.778-7.553,7.558a.375.375,0,0,0-.085.139c-.14.41-.276.821-.413,1.231C1637.555-309.707,1637.46-309.418,1637.357-309.109Zm10.759-9.322,1.449-1.449-1.441-1.44-1.448,1.448Z" transform="translate(-191.198)"/></g></svg>