<svg xmlns="http://www.w3.org/2000/svg" width="20.025" height="17.702" viewBox="0 0 20.025 17.702"><defs><style>.a,.b{fill:red;}.a{stroke:red;stroke-width:0.5px;}</style></defs><g transform="translate(0.278 0.25)"><g transform="translate(0 0)"><path class="a" d="M19.062,42.684l-6.877-11.5a2.851,2.851,0,0,0-4.9,0L.4,42.685a2.851,2.851,0,0,0,2.452,4.307H16.611A2.85,2.85,0,0,0,19.062,42.684Zm-2.451,3.168H2.856a1.71,1.71,0,0,1-1.472-2.583l6.879-11.5a1.711,1.711,0,0,1,2.943,0l6.877,11.5A1.71,1.71,0,0,1,16.611,45.852Z" transform="translate(0 -29.79)"/></g><path class="b" d="M226.138,118.894v3.776a.944.944,0,1,1-1.888,0v-3.776a.944.944,0,0,1,1.888,0Z" transform="translate(-215.28 -113.206)"/><path class="b" d="M212.072,329.6a1.416,1.416,0,1,1-1.416-1.416A1.417,1.417,0,0,1,212.072,329.6Z" transform="translate(-200.742 -316.829)"/></g></svg>