<svg xmlns="http://www.w3.org/2000/svg" width="208.333" height="52.724" viewBox="0 0 208.333 52.724"><defs><style>.a{fill:#c97b29;}.b{fill:#1b3767;}</style></defs><g transform="translate(-207 -384)"><g transform="translate(207 384)"><path class="a" d="M466.566,214.588a6.2,6.2,0,0,0-.253-1.555,2.224,2.224,0,0,0-1.32-1.587,9.6,9.6,0,0,0-3.9-.474h-2.764a9.6,9.6,0,0,0-3.9.474,2.224,2.224,0,0,0-1.32,1.587c-.013.038-.028.079-.04.123a.027.027,0,0,1,0,.013c-.01.038-.021.081-.032.123s-.023.1-.034.153-.023.111-.031.168-.02.115-.028.174-.017.128-.025.193-.017.158-.026.24c-.006.058-.013.119-.017.181q-.023.286-.038.612c-.006.121-.01.246-.015.376,0,.028,0,.055,0,.083,0,.078,0,.159-.006.239-.006.268-.008.549-.008.844a15.6,15.6,0,0,0,.306,3.7,1.99,1.99,0,0,0,.353.72,2.92,2.92,0,0,0,2.008,1.137c.308.029.684.07,1.141.108l.236.019c.039,0,.077,0,.115.008l.272.019c.42.029.9.055,1.432.072l.227.006q.437.013.924.013c2.015-.017,3.325-.168,4.145-.246a2.929,2.929,0,0,0,2.01-1.137,1.985,1.985,0,0,0,.35-.72,15.568,15.568,0,0,0,.306-3.7v-.068C466.619,215.767,466.6,215.13,466.566,214.588Zm-1.538,4.706a.008.008,0,0,1,0,.007,2.491,2.491,0,0,1-.1.472,1.4,1.4,0,0,1-.52.689,1.549,1.549,0,0,1-.863.346,31.8,31.8,0,0,1-3.791.168c-.189,0-.373,0-.55,0-.091,0-.178,0-.265,0s-.164,0-.244,0l-.193,0-.279-.006c-.059,0-.117,0-.174,0-.089,0-.174,0-.257-.008a17.474,17.474,0,0,1-1.923-.134,1.556,1.556,0,0,1-.862-.346,1.431,1.431,0,0,1-.521-.689,5.929,5.929,0,0,1-.159-1.494c0-.113-.006-.232-.008-.357,0-.061,0-.123,0-.187,0-.382,0-.8,0-1.247a16.45,16.45,0,0,1,.174-2.592c.019-.112.036-.221.055-.319.006-.036.013-.072.021-.106s.013-.062.019-.091a1.037,1.037,0,0,1,.031-.125c.009-.028.015-.055.023-.081s.023-.061.034-.089.029-.062.044-.089a.442.442,0,0,1,.049-.072.388.388,0,0,1,.068-.066,2.918,2.918,0,0,1,1.383-.342,29.887,29.887,0,0,1,3.455-.174h2.938c.344,0,.629,0,.941.028a1.339,1.339,0,0,1,.924.37c.049.048.094.094.135.14a.459.459,0,0,1,.079.095h0A2.215,2.215,0,0,1,465,214.4q.014.123.027.259c.045.481.078,1.086.078,1.831A28.065,28.065,0,0,1,465.028,219.294Z" transform="translate(-358.951 -169.655)"/><path class="a" d="M634.087,214.588a6.216,6.216,0,0,0-.253-1.555,2.224,2.224,0,0,0-1.32-1.587,9.6,9.6,0,0,0-3.9-.474h-2.765a9.6,9.6,0,0,0-3.9.474,2.222,2.222,0,0,0-1.32,1.587c-.013.038-.028.079-.04.123a.028.028,0,0,1,0,.013c-.01.038-.021.081-.032.123s-.023.1-.034.153-.023.111-.031.168-.02.115-.028.174-.017.128-.025.193-.017.158-.026.24c-.007.058-.013.119-.017.181-.015.191-.028.395-.039.612-.006.121-.01.246-.015.376,0,.028,0,.055,0,.083,0,.078,0,.159-.006.239-.006.268-.008.549-.008.844a15.589,15.589,0,0,0,.306,3.7,1.99,1.99,0,0,0,.352.72,2.92,2.92,0,0,0,2.008,1.137c.308.029.684.07,1.141.108l.236.019c.038,0,.077,0,.115.008l.272.019c.421.029.9.055,1.432.072l.227.006q.437.013.924.013c2.014-.017,3.325-.168,4.145-.246a2.93,2.93,0,0,0,2.01-1.137,1.985,1.985,0,0,0,.35-.72,15.554,15.554,0,0,0,.306-3.7v-.068C634.14,215.767,634.123,215.13,634.087,214.588Zm-1.538,4.706a.008.008,0,0,1,0,.007,2.487,2.487,0,0,1-.1.472,1.4,1.4,0,0,1-.52.689,1.55,1.55,0,0,1-.863.346,31.8,31.8,0,0,1-3.791.168c-.189,0-.373,0-.55,0-.091,0-.178,0-.265,0s-.164,0-.244,0l-.193,0-.279-.006c-.06,0-.117,0-.174,0-.089,0-.174,0-.257-.008a17.47,17.47,0,0,1-1.923-.134,1.556,1.556,0,0,1-.862-.346,1.429,1.429,0,0,1-.521-.689,5.928,5.928,0,0,1-.16-1.494c0-.113-.006-.232-.008-.357,0-.061,0-.123,0-.187,0-.382,0-.8,0-1.247a16.419,16.419,0,0,1,.174-2.592c.019-.112.036-.221.055-.319.006-.036.013-.072.021-.106s.013-.062.019-.091a.978.978,0,0,1,.032-.125c.009-.028.015-.055.023-.081s.024-.061.034-.089.029-.062.045-.089a.441.441,0,0,1,.049-.072.4.4,0,0,1,.068-.066,2.916,2.916,0,0,1,1.383-.342,29.88,29.88,0,0,1,3.455-.174h2.938c.344,0,.629,0,.942.028a1.338,1.338,0,0,1,.924.37c.049.048.094.094.135.14a.456.456,0,0,1,.078.095h0a2.216,2.216,0,0,1,.31,1.424c.009.082.019.168.027.259.045.481.078,1.086.078,1.831C632.625,217.675,632.625,218.663,632.549,219.294Z" transform="translate(-489.843 -169.655)"/><path class="b" d="M873.8,80.7V77.2c-.178-.875-.35-1.751-.522-2.45a7.675,7.675,0,0,0-1.756-3.327,7.855,7.855,0,0,0-4.026-2.45,17.549,17.549,0,0,0-3.325-.352,39.365,39.365,0,0,0-4.731-.176h-.346a30.813,30.813,0,0,0-8.58.879,6.659,6.659,0,0,0-4.03,3.15c-1.047,1.751-1.4,4.2-1.4,7.525,0,4.729,1.053,7.883,3.327,9.455a9.158,9.158,0,0,0,4.38,1.58,64.21,64.21,0,0,0,6.645.349h1.928c4.552,0,7.7-.525,9.629-1.576s2.8-2.979,2.8-5.6h-3.675a4.818,4.818,0,0,1-.877,2.45,4.669,4.669,0,0,1-2.629,1.4,40.8,40.8,0,0,1-5.6.35h-1.578a15.9,15.9,0,0,0-2.8-.176,13.946,13.946,0,0,1-2.975-.348,5.264,5.264,0,0,1-3.153-1.4,5.494,5.494,0,0,1-1.227-2.274,9.885,9.885,0,0,1-.522-3.5H873.8Zm-24.861-2.977a6.086,6.086,0,0,1,.526-2.8,5.424,5.424,0,0,1,1.4-1.924,6.649,6.649,0,0,1,2.8-1.05,8.8,8.8,0,0,1,2.274-.35h3.5a42.8,42.8,0,0,1,5.608.35,5.7,5.7,0,0,1,3.151,1.224c1.225.876,1.75,2.45,1.75,4.552H848.938Z" transform="translate(-665.465 -58.29)"/><path class="b" d="M746.694,70.2a4.829,4.829,0,0,0-2.624-1.4,33.955,33.955,0,0,0-5.076-.353,36.515,36.515,0,0,0-4.9.176,6.88,6.88,0,0,0-2.625.7,5.958,5.958,0,0,0-2.628,2.45h-.172V68.8h-3.68V91.2h3.68V80.876a33.273,33.273,0,0,1,.348-4.9,8.369,8.369,0,0,1,1.4-2.8c1.227-1.05,4.026-1.574,8.228-1.574,2.8,0,4.729.35,5.6,1.224a2.35,2.35,0,0,1,.875,1.577,10.885,10.885,0,0,1,.354,2.8v1.574h3.5V76.5C748.972,73.523,748.268,71.422,746.694,70.2Z" transform="translate(-571.626 -58.29)"/><rect class="b" width="8.577" height="22.932" transform="translate(1.052 9.982)"/><path class="b" d="M609.61,73.7a5.344,5.344,0,0,0-1.4-2.8,7.91,7.91,0,0,0-4.028-1.927,41.583,41.583,0,0,0-8.051-.529h-.178c-4.9,0-8.228.353-9.981,1.226s-2.625,2.453-2.625,4.9v.878h3.677V75.1a3.191,3.191,0,0,1,1.75-2.974q1.577-.525,7.357-.524h.174a30.294,30.294,0,0,1,6.3.35,5.333,5.333,0,0,1,2.8,1.574,6.729,6.729,0,0,1,1.055,4.2v2.45h-.354a4.33,4.33,0,0,0-3.325-1.926c-1.051-.35-3.327-.35-6.65-.524h-2.28c-4.376,0-7.177.348-8.4.877a3.409,3.409,0,0,0-2.276,2.1,7.977,7.977,0,0,0-.7,3.85,8.837,8.837,0,0,0,.346,3.327,4.126,4.126,0,0,0,1.753,2.1A5.771,5.771,0,0,0,587.9,91.2c1.575.176,4.378.176,8.232.176h4.373a16.761,16.761,0,0,0,2.625-.525,6.067,6.067,0,0,0,3.331-2.278h.17l-.17,2.627h3.495V79.3A22.8,22.8,0,0,0,609.61,73.7Zm-5.253,13.831c-1.227.525-3.677.875-7.355.875h-.87c-4.729-.176-7.357-.35-8.232-.7a2.933,2.933,0,0,1-1.752-2.979,3.623,3.623,0,0,1,1.4-3.151c.35-.174.7-.174,1.051-.349.352,0,.875-.176,1.4-.176,1.225,0,3.151-.174,6.13-.174,4.023,0,6.65.35,8.051.876a3.08,3.08,0,0,1,.174,5.777Z" transform="translate(-460.275 -58.29)"/><path class="b" d="M85.243,65.159H93.3v3.5h.524a5.859,5.859,0,0,1,3.327-3.153,15.562,15.562,0,0,1,6.479-1.048,27.171,27.171,0,0,1,6.3.7,10.055,10.055,0,0,1,4.025,2.274,7.715,7.715,0,0,1,1.926,3.5,29.4,29.4,0,0,1,.527,6.653v10.5h-8.577v-10.5a19.087,19.087,0,0,0-.176-3.676,3.332,3.332,0,0,0-.877-1.751c-.874-.7-2.8-1.226-5.776-1.226s-4.9.523-5.956,1.575a3.869,3.869,0,0,0-.872,2.1,21.769,21.769,0,0,0-.352,4.2v9.279H85.243Z" transform="translate(-71.764 -55.176)"/><path class="b" d="M235.772,38.117V31.99h4.552V28.837a5.3,5.3,0,0,1,.291-1.96,7.258,7.258,0,0,1,1.807-2.59,8.293,8.293,0,0,1,3.505-1.753,27.956,27.956,0,0,1,6.3-.527h4.377v5.779h-2.277c-2.448,0-4.373.5-4.727.876a2.607,2.607,0,0,0-.875,2.1V31.99H257.3v6.127h-8.577V54.922h-8.4V38.117Z" transform="translate(-189.379 -22.008)"/><rect class="b" width="8.581" height="22.932" transform="translate(69.852 9.982)"/><path class="b" d="M431.658,43.7h4.266v3.556a9.113,9.113,0,0,1-.693,3.892c-.841,1.363-1.976,2.512-4.818,3.221a86.208,86.208,0,0,1-11.736.532c-7.468,0-12.272-.175-14.763-.709s-4.264-1.779-4.975-3.913c-.889-1.956-1.424-5.867-1.424-11.379,0-5.156.358-8.891,1.066-11.381a6.324,6.324,0,0,1,5.872-4.8,89.111,89.111,0,0,1,13.513-.71c5.868,0,9.778.179,12.266.71a9.674,9.674,0,0,1,3.2,1.78,5.161,5.161,0,0,1,1.6,2.666c.172.535.172,1.245.356,2.135v2.377h-3.91v-1.07a2.98,2.98,0,0,0-.537-2.2,3.179,3.179,0,0,0-1.775-1.6c-1.6-.534-5.514-.888-11.38-.888-4.269,0-7.471.179-9.6.354-2.314.181-3.734.534-4.273,1.068-.708.532-1.064,1.6-1.42,3.2a85.9,85.9,0,0,0-.352,9.6v2.312c0,1.064.3,3.736.352,4.447a4.159,4.159,0,0,0,1.246,2.666,5.435,5.435,0,0,0,3.023,1.065c1.245.179,2.847.179,4.446.358h11.732c.893,0,1.777-.179,2.49-.179s1.424-.179,1.782-.179a9.431,9.431,0,0,0,2.842-.712A3.783,3.783,0,0,0,431.3,48.5a3.974,3.974,0,0,0,.358-1.778V43.7" transform="translate(-315.758 -22.008)"/><path class="a" d="M188.954,218.487h1.478a7.8,7.8,0,0,1-.062,1.232c-.061.369-.061.678-.122.863a2.037,2.037,0,0,1-1.724,1.6,29.8,29.8,0,0,1-4.066.185,30.642,30.642,0,0,1-5.114-.246,2.113,2.113,0,0,1-1.724-1.356,10.989,10.989,0,0,1-.493-3.943,15.415,15.415,0,0,1,.37-3.942,2.19,2.19,0,0,1,2.034-1.663,30.915,30.915,0,0,1,4.681-.246,23.092,23.092,0,0,1,4.25.246,3.345,3.345,0,0,1,1.109.617,1.788,1.788,0,0,1,.554.923c.06.185.06.431.123.739v1.232h-1.354v-.37a2.7,2.7,0,0,0-.186-1.17,1.1,1.1,0,0,0-.615-.555,16.157,16.157,0,0,0-3.942-.307c-1.479,0-2.588.062-3.327.122a2.727,2.727,0,0,0-1.48.37,1.865,1.865,0,0,0-.492,1.108,11.2,11.2,0,0,0-.185,2.341,6.533,6.533,0,0,1,.063.986v.8c0,.368.061.678.061.863s.061.431.061.678a1.623,1.623,0,0,0,.431.924,1.885,1.885,0,0,0,1.047.369c.432.062.986.062,1.54.124h4.064c.309,0,.616-.062.863-.062s.493-.062.617-.062a3.268,3.268,0,0,0,.985-.247,1.643,1.643,0,0,0,.431-.492c0-.123.063-.308.063-.616a5.694,5.694,0,0,0,.061-1.048" transform="translate(-143.556 -169.655)"/><rect class="a" width="1.402" height="11.381" transform="translate(170.826 41.317)"/><path class="a" d="M724.8,216.439h-5.925v1.4H724.8a15.141,15.141,0,0,1-.072,1.522.008.008,0,0,1,0,.007,2.425,2.425,0,0,1-.094.472,1.405,1.405,0,0,1-.521.689,1.556,1.556,0,0,1-.863.346,31.706,31.706,0,0,1-3.791.168c-.188,0-.371,0-.549,0-.092,0-.179,0-.267,0s-.164,0-.243,0l-.195,0-.278-.007c-.059,0-.118,0-.175,0l-.256-.007a17.747,17.747,0,0,1-1.924-.136,1.552,1.552,0,0,1-.862-.346,1.422,1.422,0,0,1-.52-.689,5.893,5.893,0,0,1-.16-1.493c0-.114-.006-.232-.008-.356,0-.063,0-.125,0-.188,0-.383,0-.8,0-1.246a16.425,16.425,0,0,1,.175-2.593c.017-.112.035-.221.055-.319.007-.035.013-.072.022-.1a.607.607,0,0,1,.02-.092.771.771,0,0,1,.031-.125c.009-.028.016-.055.024-.081s.022-.061.033-.089.031-.061.046-.09a.42.42,0,0,1,.048-.072.461.461,0,0,1,.068-.066,2.9,2.9,0,0,1,1.384-.341,29.651,29.651,0,0,1,3.454-.175h2.939a9.352,9.352,0,0,1,.94.028,1.328,1.328,0,0,1,.925.37c.048.048.094.094.133.14a.5.5,0,0,1,.079.094,1.223,1.223,0,0,1,.227.5,4.637,4.637,0,0,1,.083.927c0,.037.009.076.015.116h1.548a5.9,5.9,0,0,0-.25-1.48,2.221,2.221,0,0,0-1.319-1.587,9.6,9.6,0,0,0-3.9-.474h-2.764a9.587,9.587,0,0,0-3.9.474,2.225,2.225,0,0,0-1.32,1.587,1.223,1.223,0,0,0-.039.122.032.032,0,0,1,0,.013c-.011.037-.022.081-.033.122s-.025.1-.035.153-.022.111-.031.168-.02.114-.028.175-.015.127-.024.192-.018.157-.026.24c-.007.057-.013.118-.018.181-.015.19-.026.394-.037.61-.007.122-.011.247-.016.376,0,.029,0,.057,0,.083,0,.078,0,.16-.007.241-.006.269-.009.549-.009.844a15.607,15.607,0,0,0,.306,3.7,1.982,1.982,0,0,0,.352.719,2.924,2.924,0,0,0,2.009,1.137c.308.028.685.07,1.139.107l.236.02c.039,0,.077,0,.116.009l.271.02c.422.028.9.055,1.432.072l.227.007q.436.013.925.013c2.014-.018,3.325-.168,4.145-.247a2.928,2.928,0,0,0,2.01-1.137,1.983,1.983,0,0,0,.35-.719,11.588,11.588,0,0,0,.291-2.488c.013-.407.016-.816.016-1.216v-.186Z" transform="translate(-561.864 -169.708)"/><path class="a" d="M849.11,212.373v-1.4h-11.2v11.381h11.2v-1.227h-9.632V217.1h9.282v-1.227h-9.282v-3.5Z" transform="translate(-659.856 -169.654)"/><path class="a" d="M547,221.126V210.972h-1.579v11.381h10.683v-1.227Z" transform="translate(-431.327 -169.654)"/><path class="a" d="M23.6,210.972v1.4h5.777v9.979h1.574v-9.979h5.606v-1.4Z" transform="translate(-23.597 -169.654)"/><path class="a" d="M113.668,212.373v-1.4h-11.2v11.381h11.2v-1.227h-9.629V217.1h9.284v-1.227h-9.284v-3.5Z" transform="translate(-85.222 -169.654)"/><path class="a" d="M277.295,210.972v4.9H266.789v-4.9h-1.572v11.381h1.572V217.1h10.506v5.252h1.576V210.972Z" transform="translate(-212.386 -169.654)"/><path class="a" d="M928.418,211.311c-.8-.364-1.617-.338-3.784-.338h-2.662c-2.665,0-3.313.132-3.865.507a2.71,2.71,0,0,0-1.214,2.53c0,1.809.612,2.173.981,2.52a3.374,3.374,0,0,0,1.805.741c.262.033,2.207.027,3.816.013v0c1.725-.016,3.385-.03,3.624,0a1.549,1.549,0,0,1,1.106.7,1.761,1.761,0,0,1,.335,1.269,1.639,1.639,0,0,1-.371,1.249,1.789,1.789,0,0,1-1.331.5c-1.383,0-2.484,0-3.363,0-3.6.007-3.457.021-3.7,0a1.357,1.357,0,0,1-.89-.384c-.046-.046-.091-.09-.128-.134a.923.923,0,0,1-.076-.091h0a1.253,1.253,0,0,1-.237-.59,4.084,4.084,0,0,1-.054-.548c0-.073-.005-.151-.007-.235s0-.487,0-.575h-1.507v1.227a2.559,2.559,0,0,0,1.486,2.307c.8.363,1.617.339,3.785.339h2.662c2.666,0,3.313-.132,3.865-.507a2.712,2.712,0,0,0,1.214-2.53c0-1.809-.612-2.173-.98-2.52a3.377,3.377,0,0,0-1.805-.741c-.256-.032-1.357-.027-2.639-.014v0c-1.725.016-4.562.03-4.8,0a1.547,1.547,0,0,1-1.105-.7,1.757,1.757,0,0,1-.336-1.269,1.638,1.638,0,0,1,.371-1.249,1.787,1.787,0,0,1,1.331-.5l3.363,0c3.6-.007,3.458-.021,3.7,0a1.358,1.358,0,0,1,.89.384c.046.046.091.09.128.134a.976.976,0,0,1,.075.09h0a1.253,1.253,0,0,1,.237.59,4.053,4.053,0,0,1,.054.548q0,.11.007.235c0,.078,0,.487,0,.575H929.9v-1.227A2.56,2.56,0,0,0,928.418,211.311Z" transform="translate(-721.571 -169.655)"/><path class="a" d="M370.064,210.972v9.979h-.348l-9.979-9.979h-2.451v11.381h1.4v-9.979h.352l9.977,9.979h2.626V210.972Z" transform="translate(-284.324 -169.654)"/><path class="a" d="M31.1,30.018h8.751l-3.5,5.6H27.593Z" transform="translate(-26.719 -28.267)"/><path class="a" d="M344.963,30.018h8.755l-3.5,5.6h-8.754Z" transform="translate(-271.96 -28.267)"/></g></g></svg>