<svg xmlns="http://www.w3.org/2000/svg" width="27.051" height="17.241" viewBox="0 0 27.051 17.241"><defs><style>.a{fill:#c97b29;}</style></defs><g transform="translate(0 -92.835)"><g transform="translate(0 92.835)"><g transform="translate(0)"><path class="a" d="M26.879,100.929c-.242-.331-6-8.094-13.354-8.094S.413,100.6.172,100.929a.893.893,0,0,0,0,1.053c.241.331,6,8.094,13.354,8.094s13.112-7.764,13.354-8.094A.892.892,0,0,0,26.879,100.929Zm-13.354,7.363c-5.417,0-10.109-5.153-11.5-6.838,1.387-1.686,6.069-6.836,11.5-6.836s10.108,5.152,11.5,6.838C23.636,103.142,18.954,108.292,13.525,108.292Z" transform="translate(0 -92.835)"/></g></g><g transform="translate(8.174 96.105)"><path class="a" d="M160.073,154.725a5.351,5.351,0,1,0,5.351,5.351A5.357,5.357,0,0,0,160.073,154.725Zm0,8.918a3.567,3.567,0,1,1,3.567-3.567A3.571,3.571,0,0,1,160.073,163.643Z" transform="translate(-154.722 -154.725)"/></g></g></svg>